<svg width="10" height="12" viewBox="0 0 10 12" fill="none" xmlns="http://www.w3.org/2000/svg">
<g clip-path="url(#clip0_3_395)">
<path d="M8.48292 0.9341C7.93862 0.303027 6.95472 0.0324707 5.69601 0.0324707H2.04288C1.91834 0.0324754 1.79789 0.077671 1.70318 0.159932C1.60847 0.242193 1.54572 0.356123 1.5262 0.481239L0.00510693 10.2945C-0.0251274 10.488 0.122177 10.6632 0.31499 10.6632H2.5703L3.13671 7.00876L3.11913 7.1232C3.15948 6.86488 3.37667 6.67435 3.63386 6.67435H4.70558C6.81097 6.67435 8.45952 5.80447 8.94108 3.28809C8.95538 3.21366 8.96776 3.14123 8.97847 3.07046C8.91769 3.03772 8.91769 3.03772 8.97847 3.07046C9.12187 2.14038 8.97749 1.50728 8.48292 0.9341Z" fill="#27346A"/>
<path d="M3.99968 2.73541C4.06133 2.70555 4.12877 2.69007 4.19706 2.69011H7.06104C7.40019 2.69011 7.71651 2.71256 8.00558 2.75989C8.08646 2.77301 8.16693 2.78867 8.24687 2.80685C8.36016 2.83229 8.47215 2.86341 8.58241 2.90011C8.72452 2.94839 8.85686 3.00462 8.97851 3.07046C9.12187 2.14002 8.97749 1.50728 8.48292 0.9341C7.93831 0.303027 6.95472 0.0324707 5.69601 0.0324707H2.04257C1.78534 0.0324707 1.56651 0.222961 1.5262 0.481239L0.00510714 10.2941C-0.0251272 10.488 0.122177 10.663 0.314677 10.663H2.5703L3.74542 3.0827C3.75697 3.00819 3.78615 2.93765 3.83044 2.87716C3.87473 2.81666 3.93281 2.76802 3.99968 2.73541Z" fill="#27346A"/>
<path d="M8.94131 3.28806C8.45974 5.80409 6.81123 6.67433 4.7058 6.67433H3.63377C3.37658 6.67433 3.15935 6.86486 3.11939 7.12318L2.41474 11.6671C2.38841 11.8364 2.51716 11.9899 2.6856 11.9899H4.58677C4.69568 11.9899 4.801 11.9503 4.8838 11.8783C4.96659 11.8064 5.02143 11.7067 5.03845 11.5973L5.05697 11.4988L5.41529 9.18873L5.43837 9.06106C5.45539 8.95164 5.51023 8.852 5.59302 8.78003C5.6758 8.70807 5.78112 8.66851 5.89002 8.66847H6.17455C8.01623 8.66847 9.4583 7.90739 9.8797 5.70622C10.0556 4.78636 9.96459 4.01836 9.49927 3.47891C9.35814 3.31552 9.18287 3.18058 8.97869 3.07043C8.96763 3.14156 8.95564 3.21364 8.94131 3.28806Z" fill="#2790C3"/>
<path d="M8.47467 2.86605C8.39958 2.84375 8.32378 2.824 8.2474 2.80685C8.16743 2.78896 8.08696 2.7734 8.00611 2.7602C7.71674 2.71255 7.40064 2.69006 7.06119 2.69006H4.19756C4.12922 2.68991 4.06173 2.70552 4.00018 2.73572C3.93323 2.76823 3.87509 2.81684 3.83078 2.87735C3.78647 2.93787 3.75733 3.00845 3.74588 3.08301L3.13721 7.00875L3.11963 7.12319C3.15967 6.86487 3.37686 6.67434 3.63408 6.67434H4.70611C6.8115 6.67434 8.46002 5.80446 8.94158 3.28808C8.95592 3.21365 8.96795 3.14154 8.979 3.07045C8.85705 3.00497 8.72506 2.94838 8.58291 2.90042C8.54704 2.88833 8.51097 2.87687 8.47471 2.86605" fill="#1F264F"/>
</g>
<defs>
<clipPath id="clip0_3_395">
<rect width="10" height="12" fill="white"/>
</clipPath>
</defs>
</svg>
